<svg width="42" height="41" viewBox="0 0 42 41" fill="none" xmlns="http://www.w3.org/2000/svg">
<path d="M17.1329 40.896V4.8H3.75696V0H36.0769V4.8H22.7009V40.896H17.1329Z" fill="white"/>
<path d="M0.294305 9.59588L41.188 10.0214L41.0395 24.2926C40.9991 28.175 40.0501 31.216 38.1924 33.4155C36.3344 35.6576 33.6561 36.7604 30.1576 36.724C24.2273 36.6623 20.9732 33.6417 20.3954 27.662L20.2034 27.66C19.9559 30.9429 19.076 33.4939 17.5636 35.3129C16.0513 37.132 13.9725 38.0277 11.3274 38.0002C7.65823 37.962 4.85349 36.8661 2.91313 34.7125C1.01543 32.5593 0.0938844 28.8588 0.148484 23.6111L0.294305 9.59588ZM22.6991 15.3973L22.6991 22.99C22.6698 25.8059 23.1237 27.9037 24.2192 29.2379C25.3147 30.572 27.0784 31.2517 29.5102 31.277C31.8994 31.3019 33.6127 30.6797 34.6499 29.4104C35.7298 28.1416 36.2833 26.2059 36.3104 23.6033L36.3943 15.5398L22.6991 15.3973ZM4.65213 15.2095L4.57156 22.9531C4.53383 26.5796 5.02005 29.0594 6.03023 30.3927C7.08308 31.7264 8.82543 32.4059 11.2573 32.4312C13.7745 32.4574 15.5099 31.7501 16.4636 30.3092C17.4173 28.8684 17.1208 26.4687 17.1568 23.0129L17.1568 15.2095L4.65213 15.2095Z" fill="#89D92B"/>
</svg>
