<svg width="596" height="832" viewBox="0 0 596 832" fill="none" xmlns="http://www.w3.org/2000/svg">
<g clip-path="url(#clip0_13_3628)">
<rect width="596" height="832" fill="#020061"/>
<path fill-rule="evenodd" clip-rule="evenodd" d="M-51.0191 993.485C-9.33497 1115.52 123.386 1180.66 245.422 1138.97C367.458 1097.29 432.596 964.569 390.912 842.533C349.227 720.498 216.506 655.36 94.4705 697.044C-27.5652 738.728 -92.7031 871.449 -51.0191 993.485ZM-52.9117 994.131C-10.8706 1117.21 122.987 1182.91 246.068 1140.87C369.149 1098.83 434.845 964.968 392.804 841.887C350.763 718.806 216.905 653.11 93.8241 695.151C-29.257 737.192 -94.9528 871.05 -52.9117 994.131Z" fill="#89D92B"/>
<path fill-rule="evenodd" clip-rule="evenodd" d="M-419.612 974.041C-361.916 1142.95 -178.214 1233.11 -9.30124 1175.42C159.611 1117.72 249.77 934.018 192.074 765.105C134.378 596.193 -49.3241 506.034 -218.237 563.73C-387.149 621.425 -477.308 805.128 -419.612 974.041ZM-421.505 974.687C-363.452 1144.64 -178.613 1235.36 -8.65476 1177.31C161.303 1119.26 252.02 934.416 193.967 764.459C135.914 594.501 -48.9253 503.784 -218.883 561.837C-388.841 619.89 -479.558 804.729 -421.505 974.687Z" fill="#89D92B"/>
</g>
<defs>
<clipPath id="clip0_13_3628">
<rect width="596" height="832" fill="white"/>
</clipPath>
</defs>
</svg>


