<svg width="42" height="41" viewBox="0 0 42 41" fill="none" xmlns="http://www.w3.org/2000/svg">
<path d="M17.1329 40.896V4.8H3.75696V0H36.0769V4.8H22.7009V40.896H17.1329Z" fill="white"/>
<path d="M0.294305 9.59576L41.188 10.0212L41.0395 24.2925C40.9991 28.1749 40.0501 31.2159 38.1924 33.4153C36.3344 35.6575 33.6561 36.7603 30.1576 36.7239C24.2273 36.6622 20.9732 33.6415 20.3954 27.6619L20.2034 27.6599C19.9559 30.9428 19.076 33.4938 17.5636 35.3128C16.0513 37.1318 13.9725 38.0276 11.3274 38.0001C7.65823 37.9619 4.85349 36.866 2.91313 34.7124C1.01543 32.5592 0.0938844 28.8587 0.148484 23.611L0.294305 9.59576ZM22.6991 15.3972L22.6991 22.9899C22.6698 25.8057 23.1237 27.9036 24.2192 29.2377C25.3147 30.5719 27.0784 31.2516 29.5102 31.2769C31.8994 31.3018 33.6127 30.6795 34.6499 29.4103C35.7298 28.1414 36.2833 26.2058 36.3104 23.6032L36.3943 15.5397L22.6991 15.3972ZM4.65213 15.2094L4.57156 22.953C4.53383 26.5795 5.02005 29.0593 6.03023 30.3926C7.08308 31.7263 8.82543 32.4058 11.2573 32.4311C13.7745 32.4572 15.5099 31.7499 16.4636 30.3091C17.4173 28.8683 17.1208 26.4686 17.1568 23.0128L17.1568 15.2094L4.65213 15.2094Z" fill="#89D92B"/>
</svg>

