<svg width="596" height="598" viewBox="0 0 596 598" fill="none" xmlns="http://www.w3.org/2000/svg">
<path fill-rule="evenodd" clip-rule="evenodd" d="M-51.0191 759.485C-9.33497 881.521 123.386 946.658 245.422 904.974C367.458 863.29 432.596 730.569 390.912 608.533C349.227 486.498 216.506 421.36 94.4705 463.044C-27.5652 504.728 -92.7031 637.449 -51.0191 759.485ZM-52.9117 760.131C-10.8706 883.212 122.987 948.908 246.068 906.867C369.149 864.826 434.845 730.968 392.804 607.887C350.763 484.806 216.905 419.11 93.8241 461.151C-29.257 503.192 -94.9528 637.05 -52.9117 760.131Z" fill="#89D92B"/>
<path fill-rule="evenodd" clip-rule="evenodd" d="M-419.612 740.041C-361.916 908.953 -178.214 999.112 -9.30124 941.416C159.611 883.72 249.77 700.018 192.074 531.105C134.378 362.193 -49.3241 272.034 -218.237 329.73C-387.149 387.425 -477.308 571.128 -419.612 740.041ZM-421.505 740.687C-363.452 910.645 -178.613 1001.36 -8.65476 943.309C161.303 885.256 252.02 700.416 193.967 530.459C135.914 360.501 -48.9253 269.784 -218.883 327.837C-388.841 385.89 -479.558 570.729 -421.505 740.687Z" fill="#89D92B"/>
</svg>
