<svg width="596" height="832" viewBox="0 0 596 832" fill="none" xmlns="http://www.w3.org/2000/svg">
<g clip-path="url(#clip0_13_3628)">
<rect width="596" height="832" fill="#020061"/>
<circle cx="169.946" cy="918.009" r="234.5" transform="rotate(71.1412 169.946 918.009)" stroke="#89D92B" stroke-width="2"/>
<circle cx="-113.769" cy="869.573" r="324.193" transform="rotate(71.1412 -113.769 869.573)" stroke="#89D92B" stroke-width="2"/>
<path d="M81.1329 104.896V68.8H67.757V64H100.077V68.8H86.7009V104.896H81.1329Z" fill="white"/>
<path d="M64.2943 73.5958L105.188 74.0212L105.04 88.2925C104.999 92.1749 104.05 95.2159 102.192 97.4153C100.334 99.6575 97.6561 100.76 94.1576 100.724C88.2273 100.662 84.9732 97.6415 84.3954 91.6619L84.2034 91.6599C83.9559 94.9428 83.076 97.4938 81.5636 99.3128C80.0513 101.132 77.9725 102.028 75.3274 102C71.6582 101.962 68.8535 100.866 66.9131 98.7124C65.0154 96.5592 64.0939 92.8587 64.1485 87.611L64.2943 73.5958ZM86.6991 79.3972L86.6991 86.9899C86.6698 89.8057 87.1237 91.9036 88.2192 93.2377C89.3147 94.5719 91.0784 95.2516 93.5102 95.2769C95.8994 95.3018 97.6127 94.6795 98.6499 93.4103C99.7298 92.1414 100.283 90.2058 100.31 87.6032L100.394 79.5397L86.6991 79.3972ZM68.6521 79.2094L68.5716 86.953C68.5338 90.5795 69.0201 93.0593 70.0302 94.3926C71.0831 95.7263 72.8254 96.4058 75.2573 96.4311C77.7745 96.4572 79.5099 95.7499 80.4636 94.3091C81.4173 92.8683 81.1208 90.4686 81.1568 87.0128L81.1568 79.2094L68.6521 79.2094Z" fill="#89D92B"/>
<path d="M110.8 277V164.2H69V149.2H170V164.2H128.2V277H110.8Z" fill="white"/>
<path d="M209.037 279.6C200.504 279.6 193.637 277.267 188.437 272.6C183.237 267.933 180.637 261.667 180.637 253.8V253.6C180.637 249.6 181.437 246.067 183.037 243C184.637 239.8 186.371 237.333 188.237 235.6C190.104 233.733 193.237 232 197.637 230.4C202.037 228.667 205.371 227.467 207.637 226.8C210.037 226.133 214.104 225.133 219.837 223.8C227.571 221.933 232.704 220.067 235.237 218.2C237.904 216.333 239.237 213.267 239.237 209V208.6C239.237 204.067 237.437 200.4 233.837 197.6C230.371 194.667 225.037 193.2 217.837 193.2C211.437 193.2 205.304 194.333 199.437 196.6C193.704 198.867 189.437 201.267 186.637 203.8V191.8C194.637 183.133 205.837 178.8 220.237 178.8C243.838 178.8 255.771 190.667 256.037 214.4V251.6C256.037 262.533 256.104 269.267 256.238 271.8C256.238 272.333 256.238 273.267 256.238 274.6C256.371 275.8 256.504 276.6 256.638 277H243.238C242.571 275.533 241.904 273.667 241.237 271.4C239.904 266.867 239.237 262.467 239.237 258.2C235.504 272.467 225.437 279.6 209.037 279.6ZM215.037 268C221.437 268 227.037 265.467 231.837 260.4C236.771 255.333 239.237 248.467 239.237 239.8V225.6C236.304 228.267 230.304 231.133 221.237 234.2C212.037 237.533 205.837 240.4 202.637 242.8C199.437 245.067 197.837 248.2 197.837 252.2V253.2C197.837 263.067 203.571 268 215.037 268ZM277.939 277V142.4H294.539V277H277.939ZM153.6 445H88C88.2667 456.867 91.1333 465.333 96.6 470.4C102.2 475.467 110.533 478 121.6 478C134.533 478 144.8 475.4 152.4 470.2V481C150.267 483.8 146.267 486.2 140.4 488.2C134.667 490.2 127.733 491.2 119.6 491.2C104.667 491.2 92.8 486.8 84 478C75.2 469.2 70.8 456.8 70.8 440.8V440.6C70.8 425.933 74.8667 414 83 404.8C91.2667 395.467 102.133 390.8 115.6 390.8C129.067 390.8 139 394.667 145.4 402.4C151.8 410 155 419.6 155 431.2C155 436.533 154.533 441.133 153.6 445ZM115.6 403C107.467 403 100.867 405.8 95.8 411.4C90.8667 416.867 88.2667 424.533 88 434.4H139.8V432.4C139.8 422.533 137.6 415.2 133.2 410.4C128.8 405.467 122.933 403 115.6 403ZM171.975 489V393.2H184.775C185.442 394.933 186.108 397.333 186.775 400.4C188.108 406.533 188.775 411.933 188.775 416.6V419.4C190.375 410.467 194.375 403.467 200.775 398.4C207.175 393.333 214.642 390.8 223.175 390.8C232.775 390.8 240.308 393.6 245.775 399.2C251.375 404.8 254.175 412.933 254.175 423.6V489H237.375V421C237.375 410.2 231.108 404.8 218.575 404.8C209.908 404.8 202.775 407.6 197.175 413.2C191.575 418.667 188.775 426.267 188.775 436V489H171.975ZM310.409 491.6C305.076 491.6 300.343 490.8 296.209 489.2C292.209 487.733 288.676 484.733 285.609 480.2C282.676 475.667 281.209 469.733 281.209 462.4V406.4H266.809V396.4C274.276 396.133 279.076 394.267 281.209 390.8C283.343 387.2 285.209 379.733 286.809 368.4C286.943 367.067 287.076 366 287.209 365.2H298.009V393.2H328.809V406.4H298.009V461.2C298.009 467.733 299.209 472.267 301.609 474.8C304.143 477.2 308.009 478.4 313.209 478.4C319.476 478.4 325.209 477.333 330.409 475.2V483.6C327.076 488.933 320.409 491.6 310.409 491.6Z" fill="white" fill-opacity="0.3"/>
<path d="M79.4 701V573.2H124C136.133 573.2 145.667 576.067 152.6 581.8C159.667 587.533 163.2 595.867 163.2 606.8C163.2 625.333 153.867 635.6 135.2 637.6V638.2C145.467 638.867 153.467 641.533 159.2 646.2C164.933 650.867 167.8 657.333 167.8 665.6C167.8 677.067 164.467 685.867 157.8 692C151.133 698 139.6 701 123.2 701H79.4ZM96.8 630.8H120.6C129.4 630.8 135.867 629.067 140 625.6C144.133 622.133 146.2 616.6 146.2 609C146.2 601.533 144.2 596.2 140.2 593C136.2 589.667 130.133 588 122 588H96.8V630.8ZM96.8 687.2H121C132.333 687.2 140.067 685.6 144.2 682.4C148.333 679.067 150.4 673.6 150.4 666C150.4 658.133 148.133 652.733 143.6 649.8C139.067 646.867 131.4 645.4 120.6 645.4H96.8V687.2Z" fill="white"/>
<path d="M210.405 703.6C201.871 703.6 195.005 701.267 189.805 696.6C184.605 691.933 182.005 685.667 182.005 677.8V677.6C182.005 673.6 182.805 670.067 184.405 667C186.005 663.8 187.738 661.333 189.605 659.6C191.471 657.733 194.605 656 199.005 654.4C203.405 652.667 206.738 651.467 209.005 650.8C211.405 650.133 215.471 649.133 221.205 647.8C228.938 645.933 234.071 644.067 236.605 642.2C239.271 640.333 240.605 637.267 240.605 633V632.6C240.605 628.067 238.805 624.4 235.205 621.6C231.738 618.667 226.405 617.2 219.205 617.2C212.805 617.2 206.671 618.333 200.805 620.6C195.071 622.867 190.805 625.267 188.005 627.8V615.8C196.005 607.133 207.205 602.8 221.605 602.8C245.205 602.8 257.138 614.667 257.405 638.4V675.6C257.405 686.533 257.471 693.267 257.605 695.8C257.605 696.333 257.605 697.267 257.605 698.6C257.738 699.8 257.871 700.6 258.005 701H244.605C243.938 699.533 243.271 697.667 242.605 695.4C241.271 690.867 240.605 686.467 240.605 682.2C236.871 696.467 226.805 703.6 210.405 703.6ZM216.405 692C222.805 692 228.405 689.467 233.205 684.4C238.138 679.333 240.605 672.467 240.605 663.8V649.6C237.671 652.267 231.671 655.133 222.605 658.2C213.405 661.533 207.205 664.4 204.005 666.8C200.805 669.067 199.205 672.2 199.205 676.2V677.2C199.205 687.067 204.938 692 216.405 692ZM306.706 703.2C292.306 703.2 280.973 699.733 272.706 692.8V680.4C277.773 683.733 282.573 686.2 287.106 687.8C291.64 689.267 297.573 690 304.906 690C312.24 690 317.64 688.8 321.106 686.4C324.706 684 326.506 680.133 326.506 674.8C326.506 669.2 324.506 665.333 320.506 663.2C318.373 662.133 313.173 660.867 304.906 659.4C296.773 657.8 291.04 656.133 287.706 654.4C282.906 652 279.44 649.067 277.306 645.6C275.173 642.133 274.106 637.333 274.106 631.2C274.106 622 277.306 615 283.706 610.2C290.24 605.267 298.64 602.8 308.906 602.8C321.173 602.8 330.573 605.467 337.106 610.8V622.6C328.84 618.2 319.973 616 310.506 616C296.373 616 289.306 620.8 289.306 630.4C289.306 635.733 291.44 639.4 295.706 641.4C299.44 643.133 305.306 644.733 313.306 646.2C321.306 647.667 326.906 649.267 330.106 651C338.24 655.4 342.306 663.067 342.306 674C342.306 683.333 338.973 690.533 332.306 695.6C325.64 700.667 317.106 703.2 306.706 703.2ZM435.903 657H370.303C370.57 668.867 373.436 677.333 378.903 682.4C384.503 687.467 392.836 690 403.903 690C416.836 690 427.103 687.4 434.703 682.2V693C432.57 695.8 428.57 698.2 422.703 700.2C416.97 702.2 410.036 703.2 401.903 703.2C386.97 703.2 375.103 698.8 366.303 690C357.503 681.2 353.103 668.8 353.103 652.8V652.6C353.103 637.933 357.17 626 365.303 616.8C373.57 607.467 384.436 602.8 397.903 602.8C411.37 602.8 421.303 606.667 427.703 614.4C434.103 622 437.303 631.6 437.303 643.2C437.303 648.533 436.836 653.133 435.903 657ZM397.903 615C389.77 615 383.17 617.8 378.103 623.4C373.17 628.867 370.57 636.533 370.303 646.4H422.103V644.4C422.103 634.533 419.903 627.2 415.503 622.4C411.103 617.467 405.236 615 397.903 615Z" fill="white" fill-opacity="0.3"/>
</g>
<defs>
<clipPath id="clip0_13_3628">
<rect width="596" height="832" fill="white"/>
</clipPath>
</defs>
</svg>
